#!OML:ASF H:\Terrain\Walking\May29\JustinRory\Justin.ASF
:FULLY-SPECIFIED
:DEGREES
17
root 23.6622 16.9904 -18.4784 3.93922 -19.4049 6.53009
lowerback 9.36991 -1.00948 -7.42916
upperback 2.67761 -2.00367 1.43894
thorax -2.14402 -1.00299 5.91284
lowerneck -19.8572 -3.93352 -18.1185
upperneck 21.022 -2.41157 10.3332
head 10.3769 -1.36988 6.41377
rclavicle 8.44835e-014 0
rhumerus -34.6597 -15.8452 -65.0531
rradius 115.452
rwrist -15.9969
rhand -49.9404 45.8563
rfingers 7.12502
rthumb -22.5319 17.151
lclavicle 8.44835e-014 0
lhumerus -34.9811 12.0559 75.4858
lradius 47.8199
lwrist -6.09653
lhand -4.42551 34.1814
lfingers 7.12502
lthumb 21.3453 63.0258
rfemur -34.2031 -8.65904 23.4797
rtibia 42.7796
rfoot -16.0134 -11.1791
rtoes 21.2811
lfemur -1.38441 2.38384 -14.6865
ltibia 36.3135
lfoot -5.90056 -6.89316
ltoes -31.4817
18
root 23.5596 16.9878 -18.3396 4.23845 -19.4777 6.24588
lowerback 9.27385 -1.05138 -7.38161
upperback 2.43664 -2.04233 1.8199
thorax -2.32417 -1.00739 6.29574
lowerneck -19.546 -3.85943 -18.4958
upperneck 21.0377 -2.21026 10.1653
head 10.2982 -1.33434 6.43861
rclavicle -4.57205e-015 7.95139e-015
rhumerus -34.3225 -15.5973 -64.7605
rradius 115.678
rwrist -15.6127
rhand -50.1072 45.8838
rfingers 7.12502
rthumb -22.692 17.198
lclavicle -4.57205e-015 7.95139e-015
lhumerus -35.5047 12.5117 75.7673
lradius 47.7231
lwrist -5.87915
lhand -5.70712 33.5737
lfingers 7.12502
lthumb 20.1139 62.5525
rfemur -33.7929 -8.30254 23.8662
rtibia 42.6791
rfoot -16.4334 -11.5131
rtoes 21.5776
lfemur -2.9342 2.36666 -14.0949
ltibia 39.084
lfoot -3.34047 -7.57182
ltoes -29.2272
19
root 23.4668 16.982 -18.2053 4.60542 -19.6388 5.03968
lowerback 8.99849 -1.08914 -5.57711
upperback 2.57024 -1.90935 1.73298
thorax -2.12369 -0.955557 5.14916
lowerneck -19.2381 -3.78384 -18.2682
upperneck 20.6938 -2.28702 10.4179
head 10.1251 -1.31549 6.46912
rclavicle 4.65156e-014 -3.26007e-014
rhumerus -33.8434 -16.1976 -65.502
rradius 115.79
rwrist -15.0702
rhand -50.2444 45.9407
rfingers 7.12502
rthumb -22.8237 17.2711
lclavicle 4.65156e-014 -3.26007e-014
lhumerus -35.244 12.2787 75.2664
lradius 47.3745
lwrist -5.50521
lhand -3.35453 35.6884
lfingers 7.12502
lthumb 22.3737 64.4128
rfemur -32.979 -7.76822 25.1906
rtibia 42.4636
rfoot -17.0626 -11.8268
rtoes 22.161
lfemur -4.54643 1.97733 -12.5535
ltibia 41.8266
lfoot 0.870436 -7.64577
ltoes -18.4271
20
root 23.3773 16.9985 -18.0623 4.88176 -19.6947 3.41958
lowerback 9.79204 -1.03392 -4.358
upperback 2.2456 -1.73599 2.48974
thorax -2.93873 -0.840306 5.26909
lowerneck -19.1702 -3.78497 -18.185
upperneck 21.1408 -2.21456 9.88593
head 10.2589 -1.35494 6.28024
rclavicle 1.13307e-014 -1.19271e-014
rhumerus -33.7846 -15.9525 -65.1211
rradius 115.923
rwrist -14.7013
rhand -50.5553 45.0232
rfingers 7.12502
rthumb -23.122 16.3907
lclavicle 1.13307e-014 -1.19271e-014
lhumerus -35.7899 12.8816 75.4392
lradius 47.0701
lwrist -6.09431
lhand -5.25445 33.6932
lfingers 7.12502
lthumb 20.5489 62.6257
rfemur -31.7439 -7.57773 26.9372
rtibia 42.0991
rfoot -17.621 -12.0044
rtoes 20.7014
lfemur -5.52008 2.3424 -10.6771
ltibia 44.7323
lfoot 3.22291 -8.26417
ltoes -25.5426
21
root 23.2845 17.0126 -17.9134 4.99221 -19.6908 2.8713
lowerback 9.63305 -1.14894 -3.53095
upperback 2.43933 -1.80531 2.39509
thorax -2.67129 -0.890947 4.6958
lowerneck -19.6499 -3.78598 -17.3818
upperneck 21.2712 -2.31133 9.62278
head 10.3943 -1.35959 6.04155
rclavicle -1.20066e-013 6.04305e-014
rhumerus -33.1189 -16.3043 -66.03
rradius 116.163
rwrist -14.258
rhand -50.6914 42.6771
rfingers 7.12502
rthumb -23.2526 14.061
lclavicle -1.20066e-013 6.04305e-014
lhumerus -35.5787 13.1815 75.0072
lradius 46.8624
lwrist -6.06668
lhand -6.34933 32.8113
lfingers 7.12502
lthumb 19.4965 61.8538
rfemur -30.75 -7.67364 27.5482
rtibia 41.6854
rfoot -18.2091 -11.8626
rtoes 20.3003
lfemur -6.89375 2.43071 -9.94902
ltibia 47.4436
lfoot 5.71072 -9.03826
ltoes -25.6059
22
root 23.1884 17.0181 -17.7669 5.06722 -19.8991 2.72458
lowerback 9.40833 -1.02911 -3.21114
upperback 2.56862 -1.61292 2.31933
thorax -2.44506 -0.804313 4.403
lowerneck -19.9979 -3.95551 -17.3596
upperneck 21.3226 -2.57258 9.94275
head 10.5208 -1.43541 6.12734
rclavicle -1.49089e-014 9.54166e-015
rhumerus -32.746 -16.7842 -66.1679
rradius 116.45
rwrist -14.0321
rhand -50.2677 42.2036
rfingers 7.12502
rthumb -22.846 13.5367
lclavicle -1.49089e-014 9.54166e-015
lhumerus -35.3215 12.9802 75.0509
lradius 46.6741
lwrist -5.5053
lhand -6.56521 33.1447
lfingers 7.12502
lthumb 19.2889 62.2081
rfemur -29.9043 -7.60658 27.7557
rtibia 41.2675
rfoot -18.803 -11.7842
rtoes 21.4603
lfemur -8.37574 2.72588 -9.64935
ltibia 50.0973
lfoot 8.04106 -10.4173
ltoes -23.2849
23
root 23.0908 17.0219 -17.629 5.07762 -20.2522 2.441
lowerback 9.42161 -0.980676 -2.97448
upperback 2.65218 -1.52818 2.30128
thorax -2.38128 -0.765851 4.23925
lowerneck -20.3293 -3.94499 -16.8339
upperneck 21.4554 -2.6252 9.76353
head 10.6275 -1.43496 5.97089
rclavicle -7.7526e-015 -1.35174e-014
rhumerus -32.3578 -16.7844 -66.4049
rradius 116.699
rwrist -13.9182
rhand -49.9091 43.3469
rfingers 7.12502
rthumb -22.5019 14.638
lclavicle -7.7526e-015 -1.35174e-014
lhumerus -35.3384 13.2899 74.7395
lradius 46.7286
lwrist -5.82928
lhand -5.98929 34.0749
lfingers 7.12502
lthumb 19.8427 63.082
rfemur -28.9957 -7.49235 28.2146
rtibia 40.9504
rfoot -18.9409 -12.0942
rtoes 19.4794
lfemur -9.70953 2.76092 -9.28215
ltibia 52.4971
lfoot 9.93167 -11.7133
ltoes -18.684
24
root 23.0026 17.0253 -17.4941 5.16899 -20.6316 1.99932
lowerback 9.46975 -0.888441 -2.36647
upperback 2.65208 -1.35037 2.2819
thorax -2.44074 -0.677376 3.85583
lowerneck -20.903 -3.8511 -15.9427
upperneck 21.9669 -2.52661 9.08339
head 10.8859 -1.4022 5.60019
rclavicle 2.08724e-014 -6.36111e-015
rhumerus -32.1713 -16.8588 -66.6478
rradius 117.03
rwrist -13.8622
rhand -49.7183 43.2242
rfingers 7.12502
rthumb -22.3187 14.4932
lclavicle 2.08724e-014 -6.36111e-015
lhumerus -35.4992 13.3821 74.5439
lradius 46.7936
lwrist -6.12372
lhand -2.51363 36.0183
lfingers 7.12502
lthumb 23.1807 64.6434
rfemur -28.1516 -7.39122 28.815
rtibia 40.6915
rfoot -19.0368 -12.1869
rtoes 17.6269
lfemur -11.1335 2.74833 -8.83181
ltibia 54.7989
lfoot 11.223 -11.9525
ltoes -13.3845
25
root 22.9225 17.0237 -17.3495 5.25523 -20.9521 1.61207
lowerback 9.39247 -0.712808 -1.56766
upperback 2.69715 -1.04393 2.23537
thorax -2.39357 -0.527833 3.31806
lowerneck -20.0381 -3.96939 -16.9612
upperneck 21.2395 -2.78708 10.2459
head 10.5253 -1.46207 6.14248
rclavicle 3.77691e-015 7.95139e-015
rhumerus -32.0404 -17.2068 -66.6185
rradius 117.427
rwrist -13.7899
rhand -49.3964 42.0985
rfingers 7.12502
rthumb -22.0096 13.3309
lclavicle 3.77691e-015 7.95139e-015
lhumerus -35.3457 12.9534 74.7093
lradius 46.5442
lwrist -5.70294
lhand -1.42207 37.0292
lfingers 7.12502
lthumb 24.2276 65.5187
rfemur -27.2867 -7.34243 29.2493
rtibia 40.3344
rfoot -19.5453 -11.9663
rtoes 18.2317
lfemur -12.4975 2.98735 -8.45273
ltibia 57.0823
lfoot 12.4001 -9.63253
ltoes -0.0816959
26
root 22.8238 17.0231 -17.2119 5.11689 -21.1167 2.04414
lowerback 9.25211 -0.652205 -2.03055
upperback 2.73833 -1.00595 2.22388
thorax -2.26746 -0.510795 3.56046
lowerneck -16.6177 -3.63769 -19.9757
upperneck 17.6589 -2.72419 13.7079
head 8.71346 -1.26246 7.79014
rclavicle -4.17448e-015 -8.74653e-015
rhumerus -31.6647 -17.1151 -66.4663
rradius 117.703
rwrist -13.739
rhand -49.6953 40.7974
rfingers 7.12502
rthumb -22.2966 12.0638
lclavicle -4.17448e-015 -8.74653e-015
lhumerus -35.2629 13.0876 74.9404
lradius 46.2768
lwrist -5.45192
lhand -2.54829 35.4798
lfingers 7.12502
lthumb 23.1474 64.1091
rfemur -26.5394 -7.20789 28.8613
rtibia 40.0173
rfoot -20.1586 -12.0019
rtoes 18.2346
lfemur -13.9661 2.92688 -8.92135
ltibia 59.1388
lfoot 9.0481 -12.0275
ltoes -17.1739
27
root 22.728 17.0133 -17.083 5.40625 -21.5849 0.86008
lowerback 9.39957 -0.355661 -1.07916
upperback 2.70251 -0.511527 2.76321
thorax -2.42782 -0.265111 3.53286
lowerneck -13.5003 -4.08316 -16.3882
upperneck 15.2873 -3.8044 9.34256
head 7.42169 -1.96352 5.39162
rclavicle 5.96354e-016 -2.62396e-014
rhumerus -31.6458 -17.2527 -65.5702
rradius 117.755
rwrist -13.7753
rhand -49.0128 41.4341
rfingers 7.12502
rthumb -21.6413 12.6235
lclavicle 5.96354e-016 -2.62396e-014
lhumerus -35.5776 13.0235 75.6882
lradius 46.2895
lwrist -5.53854
lhand -4.2596 34.3647
lfingers 7.12502
lthumb 21.5047 63.191
rfemur -25.4964 -6.25955 30.1266
rtibia 39.5947
rfoot -20.4942 -12.4709
rtoes 17.4865
lfemur -15.3555 3.29001 -7.59848
ltibia 61.0799
lfoot 6.41551 -12.0428
ltoes -21.5824
